<svg viewBox="0 0 500 470" xmlns="http://www.w3.org/2000/svg" fill="none" preserveAspectRatio="xMidYMid meet">
  
  <defs>
    
    
    <clipPath id="c3"><rect x="0" y="142" width="500" height="328"></rect></clipPath>
    
    <clipPath id="ftb"><rect x="0" y="190" width="500" height="280"></rect></clipPath>
    
    <clipPath id="ftt"><rect x="0" y="0" width="500" height="190"></rect></clipPath>
    
    <clipPath id="ra"><rect x="0" y="40" width="500" height="430"></rect></clipPath>
    
    <clipPath id="cc"><rect x="0" y="410" width="500" height="60"></rect></clipPath>
  </defs>

  
  <rect width="500" height="470" rx="4" class="court-bg"></rect>
  <rect x="1" y="1" width="498" height="468" rx="3" class="cl"></rect>

  
  <rect x="170" y="0" width="160" height="190" class="paint-fill"></rect>
  <rect x="170" y="0" width="160" height="190" class="cl"></rect>

  
  <circle cx="250" cy="190" r="60" class="cl" clip-path="url(#ftb)"></circle>
  
  <circle cx="250" cy="190" r="60" class="cld" clip-path="url(#ftt)"></circle>

  
  <line x1="162" y1="70" x2="170" y2="70" class="cl"></line>
  <line x1="162" y1="80" x2="170" y2="80" class="cl"></line>
  <line x1="162" y1="110" x2="170" y2="110" class="cl"></line>
  <line x1="162" y1="140" x2="170" y2="140" class="cl"></line>
  <line x1="330" y1="70" x2="338" y2="70" class="cl"></line>
  <line x1="330" y1="80" x2="338" y2="80" class="cl"></line>
  <line x1="330" y1="110" x2="338" y2="110" class="cl"></line>
  <line x1="330" y1="140" x2="338" y2="140" class="cl"></line>

  
  <line x1="30" y1="0" x2="30" y2="142" class="cl"></line>
  <line x1="470" y1="0" x2="470" y2="142" class="cl"></line>

  
  <circle cx="250" cy="52.5" r="237.5" class="cl" clip-path="url(#c3)"></circle>

  
  <circle cx="250" cy="52.5" r="40" class="cl" clip-path="url(#ra)"></circle>

  
  <line x1="220" y1="40" x2="280" y2="40" class="backboard"></line>

  
  <circle cx="250" cy="52.5" r="7.5" class="rim"></circle>

  
  <circle cx="250" cy="470" r="60" class="cld" clip-path="url(#cc)"></circle>
</svg>